<svg width="46" height="46" viewBox="0 0 46 46" fill="none" xmlns="http://www.w3.org/2000/svg">
<path fill-rule="evenodd" clip-rule="evenodd" d="M27.1572 15.3929C27.5477 15.7834 27.5477 16.4166 27.1572 16.8071L20.9643 23L27.1572 29.1929C27.5477 29.5834 27.5477 30.2166 27.1572 30.6071C26.7666 30.9976 26.1335 30.9976 25.7429 30.6071L18.8429 23.7071C18.4524 23.3166 18.4524 22.6834 18.8429 22.2929L25.7429 15.3929C26.1335 15.0024 26.7666 15.0024 27.1572 15.3929Z" fill="#555555"/>
<path fill-rule="evenodd" clip-rule="evenodd" d="M34 1H12C5.92487 1 1 5.92487 1 12V34C1 40.0751 5.92487 45 12 45H34C40.0751 45 45 40.0751 45 34V12C45 5.92487 40.0751 1 34 1ZM12 0C5.37258 0 0 5.37258 0 12V34C0 40.6274 5.37258 46 12 46H34C40.6274 46 46 40.6274 46 34V12C46 5.37258 40.6274 0 34 0H12Z" fill="#555555"/>
</svg>
