<svg width="176" height="40" viewBox="0 0 176 40" fill="none" xmlns="http://www.w3.org/2000/svg">
<path d="M0 12C0 5.37258 5.37258 0 12 0H164C170.627 0 176 5.37258 176 12V28C176 34.6274 170.627 40 164 40H12C5.37258 40 0 34.6274 0 28V12Z" fill="white"/>
<path fill-rule="evenodd" clip-rule="evenodd" d="M164 2H12C6.47715 2 2 6.47715 2 12V28C2 33.5228 6.47715 38 12 38H164C169.523 38 174 33.5228 174 28V12C174 6.47715 169.523 2 164 2ZM12 0C5.37258 0 0 5.37258 0 12V28C0 34.6274 5.37258 40 12 40H164C170.627 40 176 34.6274 176 28V12C176 5.37258 170.627 0 164 0H12Z" fill="black"/>
<path d="M37.8055 18.0415H37V18H28V22H33.6515C32.827 24.3285 30.6115 26 28 26C24.6865 26 22 23.3135 22 20C22 16.6865 24.6865 14 28 14C29.5295 14 30.921 14.577 31.9805 15.5195L34.809 12.691C33.023 11.0265 30.634 10 28 10C22.4775 10 18 14.4775 18 20C18 25.5225 22.4775 30 28 30C33.5225 30 38 25.5225 38 20C38 19.3295 37.931 18.675 37.8055 18.0415Z" fill="#FFC107"/>
<path d="M19.1528 15.3455L22.4383 17.755C23.3273 15.554 25.4803 14 27.9998 14C29.5293 14 30.9208 14.577 31.9803 15.5195L34.8088 12.691C33.0228 11.0265 30.6338 10 27.9998 10C24.1588 10 20.8278 12.1685 19.1528 15.3455Z" fill="#FF3D00"/>
<path d="M28.0002 30.0001C30.5832 30.0001 32.9302 29.0116 34.7047 27.4041L31.6097 24.7851C30.5719 25.5743 29.3039 26.0011 28.0002 26.0001C25.3992 26.0001 23.1907 24.3416 22.3587 22.0271L19.0977 24.5396C20.7527 27.7781 24.1137 30.0001 28.0002 30.0001Z" fill="#4CAF50"/>
<path d="M37.8055 18.0415H37V18H28V22H33.6515C33.2571 23.1082 32.5467 24.0766 31.608 24.7855L31.6095 24.7845L34.7045 27.4035C34.4855 27.6025 38 25 38 20C38 19.3295 37.931 18.675 37.8055 18.0415Z" fill="#1976D2"/>
<path d="M59.344 14.912L56.256 26H52.992L49.792 14.912H52.56L54.672 23.952L56.656 14.912H59.344Z" fill="black"/>
<path d="M67.1187 21.584C67.1187 21.936 67.1027 22.24 67.0707 22.496H61.8067C61.8921 23.2107 62.0947 23.712 62.4147 24C62.7347 24.288 63.1774 24.432 63.7427 24.432C64.0841 24.432 64.4147 24.3733 64.7347 24.256C65.0547 24.128 65.4014 23.936 65.7747 23.68L66.8147 25.088C65.8227 25.8773 64.7187 26.272 63.5027 26.272C62.1267 26.272 61.0707 25.8667 60.3347 25.056C59.5987 24.2453 59.2307 23.1573 59.2307 21.792C59.2307 20.928 59.3854 20.1547 59.6947 19.472C60.0041 18.7787 60.4574 18.2347 61.0547 17.84C61.6521 17.4347 62.3667 17.232 63.1987 17.232C64.4254 17.232 65.3854 17.616 66.0787 18.384C66.7721 19.152 67.1187 20.2187 67.1187 21.584ZM64.6387 20.864C64.6174 19.5627 64.1587 18.912 63.2627 18.912C62.8254 18.912 62.4841 19.072 62.2387 19.392C62.0041 19.712 61.8601 20.24 61.8067 20.976H64.6387V20.864Z" fill="black"/>
<path d="M71.0509 25.04C71.0509 25.9253 70.9069 26.656 70.6189 27.232C70.3415 27.808 69.9575 28.2667 69.4669 28.608C68.9869 28.96 68.3789 29.2693 67.6429 29.536L66.7949 27.696C67.2109 27.504 67.5362 27.3173 67.7709 27.136C68.0055 26.9547 68.1869 26.7093 68.3149 26.4C68.4535 26.1013 68.5229 25.7013 68.5229 25.2V17.504H71.0509V25.04ZM69.7869 13.024C70.2242 13.024 70.5815 13.1627 70.8589 13.44C71.1469 13.7067 71.2909 14.048 71.2909 14.464C71.2909 14.88 71.1469 15.2267 70.8589 15.504C70.5815 15.7707 70.2242 15.904 69.7869 15.904C69.3495 15.904 68.9922 15.7707 68.7149 15.504C68.4375 15.2267 68.2989 14.88 68.2989 14.464C68.2989 14.048 68.4375 13.7067 68.7149 13.44C68.9922 13.1627 69.3495 13.024 69.7869 13.024Z" fill="black"/>
<path d="M79.7909 23.536C79.7909 23.856 79.8335 24.0907 79.9189 24.24C80.0149 24.3893 80.1642 24.5013 80.3669 24.576L79.8389 26.224C79.3162 26.1813 78.8895 26.0693 78.5589 25.888C78.2282 25.696 77.9722 25.3973 77.7909 24.992C77.2362 25.8453 76.3829 26.272 75.2309 26.272C74.3882 26.272 73.7162 26.0267 73.2149 25.536C72.7135 25.0453 72.4629 24.4053 72.4629 23.616C72.4629 22.688 72.8042 21.9787 73.4869 21.488C74.1695 20.9973 75.1562 20.752 76.4469 20.752H77.3109V20.384C77.3109 19.8827 77.2042 19.5413 76.9909 19.36C76.7775 19.168 76.4042 19.072 75.8709 19.072C75.5935 19.072 75.2575 19.1147 74.8629 19.2C74.4682 19.2747 74.0629 19.3813 73.6469 19.52L73.0709 17.856C73.6042 17.6533 74.1482 17.4987 74.7029 17.392C75.2682 17.2853 75.7909 17.232 76.2709 17.232C77.4869 17.232 78.3775 17.4827 78.9429 17.984C79.5082 18.4853 79.7909 19.2373 79.7909 20.24V23.536ZM75.9669 24.464C76.5429 24.464 76.9909 24.192 77.3109 23.648V22.144H76.6869C76.1109 22.144 75.6789 22.2453 75.3909 22.448C75.1135 22.6507 74.9749 22.9653 74.9749 23.392C74.9749 23.7333 75.0602 24 75.2309 24.192C75.4122 24.3733 75.6575 24.464 75.9669 24.464Z" fill="black"/>
<path d="M93.2174 14.128V26H90.9774L90.8494 25.008C90.252 25.8507 89.4467 26.272 88.4334 26.272C87.3774 26.272 86.572 25.8667 86.0174 25.056C85.4734 24.2453 85.2014 23.136 85.2014 21.728C85.2014 20.864 85.3454 20.0907 85.6334 19.408C85.9214 18.7253 86.3267 18.192 86.8494 17.808C87.3827 17.424 87.9907 17.232 88.6734 17.232C89.484 17.232 90.156 17.4987 90.6894 18.032V13.856L93.2174 14.128ZM89.2174 24.416C89.804 24.416 90.2947 24.096 90.6894 23.456V19.792C90.4867 19.5467 90.2787 19.3653 90.0654 19.248C89.8627 19.1307 89.628 19.072 89.3614 19.072C88.892 19.072 88.5187 19.2907 88.2414 19.728C87.964 20.1653 87.8254 20.8373 87.8254 21.744C87.8254 22.736 87.9427 23.4293 88.1774 23.824C88.4227 24.2187 88.7694 24.416 89.2174 24.416Z" fill="black"/>
<path d="M102.603 21.584C102.603 21.936 102.587 22.24 102.555 22.496H97.2911C97.3765 23.2107 97.5791 23.712 97.8991 24C98.2191 24.288 98.6618 24.432 99.2271 24.432C99.5685 24.432 99.8991 24.3733 100.219 24.256C100.539 24.128 100.886 23.936 101.259 23.68L102.299 25.088C101.307 25.8773 100.203 26.272 98.9871 26.272C97.6111 26.272 96.5551 25.8667 95.8191 25.056C95.0831 24.2453 94.7151 23.1573 94.7151 21.792C94.7151 20.928 94.8698 20.1547 95.1791 19.472C95.4885 18.7787 95.9418 18.2347 96.5391 17.84C97.1364 17.4347 97.8511 17.232 98.6831 17.232C99.9098 17.232 100.87 17.616 101.563 18.384C102.256 19.152 102.603 20.2187 102.603 21.584ZM100.123 20.864C100.102 19.5627 99.6431 18.912 98.7471 18.912C98.3098 18.912 97.9685 19.072 97.7231 19.392C97.4885 19.712 97.3445 20.24 97.2911 20.976H100.123V20.864Z" fill="black"/>
<path d="M109.351 25.6C109.042 25.8133 108.679 25.9787 108.263 26.096C107.858 26.2133 107.453 26.272 107.047 26.272C105.191 26.2613 104.263 25.2373 104.263 23.2V19.264H103.063V17.504H104.263V15.664L106.791 15.376V17.504H108.743L108.471 19.264H106.791V23.168C106.791 23.5627 106.855 23.8453 106.983 24.016C107.111 24.1867 107.314 24.272 107.591 24.272C107.879 24.272 108.183 24.1813 108.503 24L109.351 25.6Z" fill="black"/>
<path d="M116.76 23.536C116.76 23.856 116.802 24.0907 116.888 24.24C116.984 24.3893 117.133 24.5013 117.336 24.576L116.808 26.224C116.285 26.1813 115.858 26.0693 115.528 25.888C115.197 25.696 114.941 25.3973 114.76 24.992C114.205 25.8453 113.352 26.272 112.2 26.272C111.357 26.272 110.685 26.0267 110.184 25.536C109.682 25.0453 109.432 24.4053 109.432 23.616C109.432 22.688 109.773 21.9787 110.456 21.488C111.138 20.9973 112.125 20.752 113.416 20.752H114.28V20.384C114.28 19.8827 114.173 19.5413 113.96 19.36C113.746 19.168 113.373 19.072 112.84 19.072C112.562 19.072 112.226 19.1147 111.832 19.2C111.437 19.2747 111.032 19.3813 110.616 19.52L110.04 17.856C110.573 17.6533 111.117 17.4987 111.672 17.392C112.237 17.2853 112.76 17.232 113.24 17.232C114.456 17.232 115.346 17.4827 115.912 17.984C116.477 18.4853 116.76 19.2373 116.76 20.24V23.536ZM112.936 24.464C113.512 24.464 113.96 24.192 114.28 23.648V22.144H113.656C113.08 22.144 112.648 22.2453 112.36 22.448C112.082 22.6507 111.944 22.9653 111.944 23.392C111.944 23.7333 112.029 24 112.2 24.192C112.381 24.3733 112.626 24.464 112.936 24.464Z" fill="black"/>
<path d="M120.873 26.272C120.137 26.272 119.561 26.064 119.145 25.648C118.74 25.2213 118.537 24.6187 118.537 23.84V14.128L121.065 13.856V23.744C121.065 24.096 121.209 24.272 121.497 24.272C121.646 24.272 121.785 24.2453 121.913 24.192L122.409 25.984C121.95 26.176 121.438 26.272 120.873 26.272Z" fill="black"/>
<path d="M128.343 17.232C129.079 17.232 129.655 17.456 130.071 17.904C130.487 18.352 130.695 18.9813 130.695 19.792V26H128.167V20.224C128.167 19.7973 128.098 19.504 127.959 19.344C127.82 19.1733 127.623 19.088 127.367 19.088C126.855 19.088 126.364 19.4507 125.895 20.176V26H123.367V14.128L125.895 13.872V18.416C126.247 18.0213 126.62 17.728 127.015 17.536C127.41 17.3333 127.852 17.232 128.343 17.232Z" fill="black"/>
<path d="M140.009 21.584C140.009 21.936 139.993 22.24 139.961 22.496H134.697C134.783 23.2107 134.985 23.712 135.305 24C135.625 24.288 136.068 24.432 136.633 24.432C136.975 24.432 137.305 24.3733 137.625 24.256C137.945 24.128 138.292 23.936 138.665 23.68L139.705 25.088C138.713 25.8773 137.609 26.272 136.393 26.272C135.017 26.272 133.961 25.8667 133.225 25.056C132.489 24.2453 132.121 23.1573 132.121 21.792C132.121 20.928 132.276 20.1547 132.585 19.472C132.895 18.7787 133.348 18.2347 133.945 17.84C134.543 17.4347 135.257 17.232 136.089 17.232C137.316 17.232 138.276 17.616 138.969 18.384C139.663 19.152 140.009 20.2187 140.009 21.584ZM137.529 20.864C137.508 19.5627 137.049 18.912 136.153 18.912C135.716 18.912 135.375 19.072 135.129 19.392C134.895 19.712 134.751 20.24 134.697 20.976H137.529V20.864Z" fill="black"/>
<path d="M144.421 17.232C145.029 17.232 145.6 17.3227 146.133 17.504C146.667 17.6853 147.136 17.9413 147.541 18.272L146.613 19.696C145.92 19.2587 145.221 19.04 144.517 19.04C144.187 19.04 143.931 19.0987 143.749 19.216C143.579 19.3227 143.493 19.4773 143.493 19.68C143.493 19.84 143.531 19.9733 143.605 20.08C143.691 20.176 143.856 20.2773 144.101 20.384C144.347 20.4907 144.725 20.6187 145.237 20.768C146.123 21.024 146.779 21.36 147.205 21.776C147.643 22.1813 147.861 22.7467 147.861 23.472C147.861 24.048 147.696 24.5493 147.365 24.976C147.035 25.392 146.581 25.712 146.005 25.936C145.429 26.16 144.789 26.272 144.085 26.272C143.371 26.272 142.704 26.16 142.085 25.936C141.477 25.712 140.96 25.4027 140.533 25.008L141.765 23.632C142.48 24.1867 143.232 24.464 144.021 24.464C144.405 24.464 144.704 24.3947 144.917 24.256C145.141 24.1173 145.253 23.92 145.253 23.664C145.253 23.4613 145.211 23.3013 145.125 23.184C145.04 23.0667 144.875 22.96 144.629 22.864C144.384 22.7573 143.995 22.6293 143.461 22.48C142.619 22.2347 141.989 21.8933 141.573 21.456C141.157 21.0187 140.949 20.4747 140.949 19.824C140.949 19.3333 141.088 18.896 141.365 18.512C141.653 18.1173 142.059 17.808 142.581 17.584C143.115 17.3493 143.728 17.232 144.421 17.232Z" fill="black"/>
</svg>
