<svg width="26" height="26" viewBox="0 0 26 26" fill="none" xmlns="http://www.w3.org/2000/svg">
<path fill-rule="evenodd" clip-rule="evenodd" d="M20.3125 1.62976C20.528 1.62978 20.7346 1.71539 20.887 1.86776C21.0394 2.02013 21.125 2.22678 21.125 2.44226V3.25476H22.75C23.6378 3.25476 24.375 3.99192 24.375 4.87976V22.7548C24.375 23.6426 23.6378 24.3798 22.75 24.3798H13H3.25C2.36216 24.3798 1.625 23.6426 1.625 22.7548V4.87976C1.625 3.99192 2.36216 3.25476 3.25 3.25476H4.875V2.44226C4.87502 2.22678 4.96063 2.02013 5.113 1.86776C5.26537 1.71539 5.47202 1.62978 5.6875 1.62976H9.75C11.0775 1.62976 12.2574 2.27797 13 3.27063C13.7426 2.27797 14.9225 1.62976 16.25 1.62976H20.3125ZM19.5 3.25476H16.25C14.8942 3.25476 13.8125 4.33644 13.8125 5.69226V20.4061C14.4994 19.8747 15.3197 19.5048 16.25 19.5048H19.5V4.06726V3.25476ZM9.75 3.25476H6.5V4.06726V19.5048H9.75C10.6803 19.5048 11.5006 19.8747 12.1875 20.4061V5.69226C12.1875 4.33644 11.1058 3.25476 9.75 3.25476ZM22.75 4.87976H21.125V20.3173C21.125 20.5327 21.0394 20.7394 20.887 20.8918C20.7346 21.0441 20.528 21.1297 20.3125 21.1298H16.25C15.1802 21.1298 14.2839 21.8046 13.9521 22.7548H22.75V4.87976ZM4.875 4.87976H3.25V22.7548H12.0479C11.7161 21.8046 10.8198 21.1298 9.75 21.1298H5.6875C5.47202 21.1297 5.26537 21.0441 5.113 20.8918C4.96063 20.7394 4.87502 20.5327 4.875 20.3173V4.87976Z" fill="#D9D9D9"/>
</svg>
