<svg width="26" height="22" viewBox="0 0 26 22" fill="none" xmlns="http://www.w3.org/2000/svg">
<path d="M24 18C24 18.5304 23.7893 19.0391 23.4142 19.4142C23.0391 19.7893 22.5304 20 22 20H4C3.46957 20 2.96086 19.7893 2.58579 19.4142C2.21071 19.0391 2 18.5304 2 18V7C2 6.46957 2.21071 5.96086 2.58579 5.58579C2.96086 5.21071 3.46957 5 4 5H8L10 2H16L18 5H22C22.5304 5 23.0391 5.21071 23.4142 5.58579C23.7893 5.96086 24 6.46957 24 7V18Z" stroke="#0BAD59" stroke-width="3" stroke-linecap="round" stroke-linejoin="round"/>
<path d="M13 16C15.2091 16 17 14.2091 17 12C17 9.79086 15.2091 8 13 8C10.7909 8 9 9.79086 9 12C9 14.2091 10.7909 16 13 16Z" stroke="#0BAD59" stroke-width="3" stroke-linecap="round" stroke-linejoin="round"/>
</svg>
